# xmcd CD database file
#
# Track frame offsets:
#	150
#	32760
#	65088
#	101625
#	132620
#	151530
#	176360
#	198895
#	229293
#	265273
#
# Disc length: 3790 seconds
#
# Revision: 0
# Processed by: cddbd v1.5.1PL0 Copyright (c) Steve Scherf et al.
# Submitted via: CDex 1.51
#
DISCID=850ecc0a
DTITLE=Jack Parnell Quartet - Live From Ronnie's
DYEAR=1992
DGENRE=Jazz
TTITLE0=Jamfs Are Coming
TTITLE1=Autumn Leaves
TTITLE2=Whisper Not
TTITLE3=El Cahon
TTITLE4=Airigin
TTITLE5=Tenor Madness
TTITLE6=Alone Together
TTITLE7=Fried Bananas
TTITLE8=You Don't Know What Love Is
TTITLE9=Whee
EXTD=YEAR: 1992
EXTT0=
EXTT1=
EXTT2=
EXTT3=
EXTT4=
EXTT5=
EXTT6=
EXTT7=
EXTT8=
EXTT9=
PLAYORDER=
